#!OML:ASF G:\JayActor3\Patient Classification 1\Patient 1\Session 5\male.ASF
:FULLY-SPECIFIED
:DEGREES
863
root -37.4969 18.3785 -6.44301 1319.82 -94.4098 -1304.8
lowerback 18.3189 -1.34779 5.02398
upperback 7.29015 -1.34485 0.0608293
thorax -2.51018 -0.772576 -2.50475
lowerneck 7.48943 -0.782033 1.98544
upperneck -17.661 -0.707652 1.8542
head -6.60932 -0.739761 0.332144
rclavicle 1.23246e-014 3.3197e-014
rhumerus -30.1824 -4.45336 -86.9262
rradius 24.5308
rwrist 7.73817
rhand -22.6711 -8.53664
rfingers 7.12502
rthumb 3.76073 -38.4832
lclavicle 1.23246e-014 3.3197e-014
lhumerus -38.1716 6.81083 80.9303
lradius 27.397
lwrist 19.1915
lhand -20.5609 15.0956
lfingers 7.12502
lthumb 5.79825 44.9963
rfemur -21.7035 -3.13788 29.8719
rtibia 32.3322
rfoot 9.4901 -9.54842
rtoes 3.52113
lfemur -43.8756 9.02162 -17.9575
ltibia 45.1647
lfoot 19.9774 -3.66466
ltoes -24.4291
864
root -37.6714 18.3673 -6.44473 1323.21 -94.4352 -1308.33
lowerback 18.3249 -1.27787 5.10721
upperback 7.33804 -1.24565 0.0936945
thorax -2.45373 -0.723193 -2.53765
lowerneck 7.39068 -0.794623 1.98636
upperneck -17.6135 -0.728447 1.86045
head -6.57676 -0.749679 0.334777
rclavicle -5.96354e-016 1.13307e-014
rhumerus -30.1692 -4.48714 -86.8909
rradius 24.5394
rwrist 7.76213
rhand -22.719 -8.52993
rfingers 7.12502
rthumb 3.71447 -38.4773
lclavicle -5.96354e-016 1.13307e-014
lhumerus -38.2044 6.94786 80.8877
lradius 27.1436
lwrist 19.0144
lhand -20.4901 15.1171
lfingers 7.12502
lthumb 5.86669 45.0159
rfemur -20.6132 -3.09286 30.1713
rtibia 31.8339
rfoot 9.20282 -9.69507
rtoes 3.08892
lfemur -44.6047 9.27551 -18.1828
ltibia 44.0722
lfoot 20.7977 -3.69385
ltoes -24.7618
865
root -37.8465 18.3531 -6.44447 1326.91 -94.4985 -1312.18
lowerback 18.3452 -1.21474 5.24542
upperback 7.37619 -1.14471 0.126806
thorax -2.415 -0.672528 -2.60136
lowerneck 7.28648 -0.801192 1.97201
upperneck -17.578 -0.741116 1.881
head -6.54693 -0.756232 0.343924
rclavicle -1.68967e-014 -2.08724e-014
rhumerus -30.1556 -4.51216 -86.8681
rradius 24.5442
rwrist 7.81202
rhand -22.7105 -8.51816
rfingers 7.12502
rthumb 3.72271 -38.4654
lclavicle -1.68967e-014 -2.08724e-014
lhumerus -38.2281 7.09818 80.8349
lradius 26.875
lwrist 18.8159
lhand -20.4445 15.1378
lfingers 7.12502
lthumb 5.91066 45.0354
rfemur -19.5273 -3.02554 30.4846
rtibia 31.318
rfoot 8.95793 -9.8265
rtoes 2.6832
lfemur -45.2876 9.51604 -18.3892
ltibia 42.8676
lfoot 21.6559 -3.82864
ltoes -25.279
866
root -38.0234 18.3361 -6.44191 1330.71 -94.6039 -1316.11
lowerback 18.3655 -1.16434 5.43403
upperback 7.4078 -1.0514 0.160166
thorax -2.38362 -0.624943 -2.69168
lowerneck 7.21385 -0.793353 1.9501
upperneck -17.5812 -0.733757 1.90248
head -6.53498 -0.75359 0.353518
rclavicle -4.37326e-015 -2.00773e-014
rhumerus -30.1424 -4.52344 -86.8566
rradius 24.5423
rwrist 7.86985
rhand -22.6696 -8.49613
rfingers 7.12502
rthumb 3.76214 -38.4427
lclavicle -4.37326e-015 -2.00773e-014
lhumerus -38.254 7.26247 80.7741
lradius 26.6059
lwrist 18.6118
lhand -20.4271 15.1449
lfingers 7.12502
lthumb 5.92752 45.0419
rfemur -18.4362 -2.96809 30.8027
rtibia 30.7882
rfoot 8.76065 -9.90368
rtoes 2.21323
lfemur -45.9079 9.7353 -18.5764
ltibia 41.56
lfoot 22.5237 -4.02074
ltoes -25.8263
867
root -38.202 18.3168 -6.43743 1334.59 -94.7412 -1320.12
lowerback 18.3911 -1.1236 5.65279
upperback 7.42627 -0.964214 0.189902
thorax -2.36904 -0.580147 -2.80147
lowerneck 7.20667 -0.772089 1.93416
upperneck -17.6267 -0.70441 1.92333
head -6.54809 -0.741496 0.360882
rclavicle -6.75868e-015 5.96354e-016
rhumerus -30.1415 -4.53136 -86.8567
rradius 24.5322
rwrist 7.93421
rhand -22.6012 -8.47614
rfingers 7.12502
rthumb 3.82824 -38.4215
lclavicle -6.75868e-015 5.96354e-016
lhumerus -38.3014 7.43699 80.7002
lradius 26.3462
lwrist 18.4221
lhand -20.4291 15.165
lfingers 7.12502
lthumb 5.92559 45.0622
rfemur -17.3368 -2.89217 31.1148
rtibia 30.2396
rfoot 8.60524 -9.93619
rtoes 1.6793
lfemur -46.4473 9.92656 -18.7304
ltibia 40.1632
lfoot 23.3678 -4.12628
ltoes -26.1606
868
root -38.3825 18.2951 -6.43202 1338.57 -94.8981 -1324.23
lowerback 18.42 -1.08053 5.87616
upperback 7.43856 -0.872593 0.217721
thorax -2.36176 -0.533256 -2.91672
lowerneck 7.21734 -0.742553 1.92655
upperneck -17.6911 -0.664261 1.93026
head -6.57051 -0.724024 0.361808
rclavicle 1.98785e-015 1.96797e-014
rhumerus -30.1358 -4.55363 -86.8581
rradius 24.5092
rwrist 7.98908
rhand -22.5292 -8.4509
rfingers 7.12502
rthumb 3.89776 -38.395
lclavicle 1.98785e-015 1.96797e-014
lhumerus -38.3516 7.61494 80.6258
lradius 26.1009
lwrist 18.2511
lhand -20.4491 15.177
lfingers 7.12502
lthumb 5.90623 45.0747
rfemur -16.2272 -2.78754 31.4125
rtibia 29.6707
rfoot 8.47278 -9.93428
rtoes 1.1495
lfemur -46.9045 10.0937 -18.8505
ltibia 38.6917
lfoot 24.1715 -4.08854
ltoes -26.1647
869
root -38.5654 18.2722 -6.42586 1342.54 -95.0683 -1328.3
lowerback 18.4313 -1.03696 6.09834
upperback 7.44688 -0.781379 0.235807
thorax -2.34901 -0.486129 -3.04171
lowerneck 7.24324 -0.713334 1.94401
upperneck -17.7615 -0.622586 1.92466
head -6.5977 -0.706575 0.354554
rclavicle 0 1.59028e-015
rhumerus -30.125 -4.59785 -86.8679
rradius 24.4742
rwrist 8.03284
rhand -22.4776 -8.43218
rfingers 7.12502
rthumb 3.94759 -38.3754
lclavicle 0 1.59028e-015
lhumerus -38.4061 7.77923 80.5511
lradius 25.8842
lwrist 18.1153
lhand -20.4841 15.187
lfingers 7.12502
lthumb 5.8724 45.0857
rfemur -15.1095 -2.66706 31.6869
rtibia 29.0789
rfoot 8.38334 -9.89179
rtoes 0.516882
lfemur -47.2798 10.2326 -18.9431
ltibia 37.1601
lfoot 24.9005 -3.83339
ltoes -25.783
